<?xml version="1.0" encoding="UTF-8"?>
<svg width="90px" height="90px" viewBox="0 0 90 90" version="1.1" xmlns="http://www.w3.org/2000/svg" xmlns:xlink="http://www.w3.org/1999/xlink">
    <!-- Generator: Sketch 53.2 (72643) - https://sketchapp.com -->
    <title>Color_svg</title>
    <desc>Created with Sketch.</desc>
    <g id="Page-1" stroke="none" stroke-width="1" fill="none" fill-rule="evenodd">
        <g id="mebel-na-zakaz" transform="translate(-345.000000, -2671.000000)">
            <g id="ПРЕИМУЩЕСТВА" transform="translate(0.000000, 2595.000000)">
                <g id="Color_svg" transform="translate(345.000000, 76.000000)">
                    <rect id="Rectangle" stroke="#676767" opacity="0.0107886905" x="0.5" y="0.5" width="89" height="89"></rect>
                    <path d="M74.5244957,60.5728643 L59.6357349,60.5728643 L68.3600231,55.4951256 C68.6988357,55.2978543 68.9461671,54.9730352 69.0476081,54.5920653 C69.1488646,54.2110955 69.0959308,53.8052111 68.9002421,53.4634724 L58.7561499,35.7512563 C58.3487262,35.0398894 57.4462709,34.7961357 56.740611,35.2068543 L52.6084611,37.6118543 C55.4034352,32.7315729 57.6840115,28.7497035 57.6840115,28.7497035 C58.0914352,28.0383367 57.8496369,27.1285829 57.1439769,26.7178643 L39.5738559,16.4917337 C39.2348588,16.2940905 38.8320461,16.2409146 38.4541326,16.3429899 C38.076219,16.4450653 37.7540058,16.694397 37.558317,17.0361357 L35.2391931,21.0847538 L35.2391931,11.4874372 C35.2391931,10.666 34.578536,10 33.7636888,10 L13.4755043,10 C12.6606571,10 12,10.666 12,11.4874372 L12,82.5125628 C12,83.334 12.6606571,84 13.4755043,84 L74.5244957,84 C75.3393429,84 76,83.334 76,82.5125628 L76,62.0603015 C76,61.2388643 75.3393429,60.5728643 74.5244957,60.5728643 Z M57.272052,38 L66,53.328114 L59.727948,57 L55.363974,49.3357547 L51,41.6715094 L57.272052,38 Z M31,49.9999363 L18,58 L24.4999104,46 L31,49.9999363 Z M26,44.2606629 L29.5121635,38 L41,44.8260393 L33.975673,49 L26,44.2606629 Z M30.24991,54 L34,61 L19,61 L30.24991,54 Z M33,52.6808658 L39.2299583,49 L43.5646443,56.6833826 L46,61 L37.6934504,61 L33,52.6808658 Z M42,47.6399772 L48.272052,44 L52.636026,51.5980323 L57,59.1960647 L53.8909935,61 L49.6735376,61 L42,47.6399772 Z M39.6716977,20 L55,28.7281337 L51.3283023,35 L36,26.272052 L39.6716977,20 Z M34.6717341,29 L42.335867,33.3738949 L50,37.7477898 L48.1405962,40.9314269 L44.5159356,43 L38.664133,39.6603917 L31,35.2864968 L34.6717341,29 Z M15,13 L32,13 L32,20 L15,20 L15,13 Z M15,23 L32,23 L32,25.9312051 L29.6330213,30 L15,30 L15,23 Z M15,34 L28,34 L23.9159388,41 L15,41 L15,34 Z M15,44 L22,44 L15,57 L15,44 Z M73,81 L15,81 L15,64 L73,64 L73,81 Z" id="COLOR" fill="#A8C30C" fill-rule="nonzero"></path>
                </g>
            </g>
        </g>
    </g>
</svg>