<?xml version="1.0" encoding="UTF-8"?>
<svg width="60px" height="60px" viewBox="0 0 60 60" version="1.1" xmlns="http://www.w3.org/2000/svg" xmlns:xlink="http://www.w3.org/1999/xlink">
    <!-- Generator: Sketch 53.2 (72643) - https://sketchapp.com -->
    <title>Furniture</title>
    <desc>Created with Sketch.</desc>
    <g id="Page-1" stroke="none" stroke-width="1" fill="none" fill-rule="evenodd">
        <g id="mebel-na-zakaz" transform="translate(-150.000000, -2042.000000)">
            <g id="как-заказать" transform="translate(150.000000, 1529.000000)">
                <g id="Furniture" transform="translate(0.000000, 513.000000)">
                    <rect id="Rectangle" fill="#FFFFFF" opacity="0.00806826637" x="0" y="0" width="60" height="60"></rect>
                    <g id="furniture-svgrepo-com" transform="translate(6.000000, 4.000000)" fill="#000000" fill-rule="nonzero">
                        <path d="M47.0204082,21.5510204 L29.3877551,21.5510204 L29.3877551,0.979591837 C29.3877551,0.438661224 28.9491918,0 28.4081633,0 L0.979591837,0 C0.438563265,0 0,0.438661224 0,0.979591837 L0,47.0204082 C0,47.5613388 0.438563265,48 0.979591837,48 L26.9387755,48 C27.4798041,48 27.9183673,47.5613388 27.9183673,47.0204082 L27.9183673,44.0816327 L39.6734694,44.0816327 L39.6734694,47.0204082 C39.6734694,47.5613388 40.1120327,48 40.6530612,48 L44.0816327,48 C44.6226612,48 45.0612245,47.5613388 45.0612245,47.0204082 L45.0612245,44.0816327 L45.5510204,44.0816327 C46.092049,44.0816327 46.5306122,43.6429714 46.5306122,43.1020408 L46.5306122,26.9387755 L47.0204082,26.9387755 C47.5614367,26.9387755 48,26.5001143 48,25.9591837 L48,22.5306122 C48,21.9896816 47.5614367,21.5510204 47.0204082,21.5510204 Z M13.7142857,46.0408163 L1.95918367,46.0408163 L1.95918367,37.7142857 L13.7142857,37.7142857 L13.7142857,46.0408163 Z M13.7142857,35.755102 L1.95918367,35.755102 L1.95918367,1.95918367 L13.7142857,1.95918367 L13.7142857,35.755102 Z M22.5306122,46.0408163 L15.6734694,46.0408163 L15.6734694,1.95918367 L27.4285714,1.95918367 L27.4285714,21.5510204 L20.0816327,21.5510204 C19.5406041,21.5510204 19.1020408,21.9896816 19.1020408,22.5306122 L19.1020408,25.9591837 C19.1020408,26.5001143 19.5406041,26.9387755 20.0816327,26.9387755 L21.0612245,26.9387755 L21.0612245,43.1020408 C21.0612245,43.6429714 21.4997878,44.0816327 22.0408163,44.0816327 L22.5306122,44.0816327 L22.5306122,46.0408163 Z M25.9591837,46.0408163 L24.4897959,46.0408163 L24.4897959,44.0816327 L25.9591837,44.0816327 L25.9591837,46.0408163 Z M43.1020408,46.0408163 L41.6326531,46.0408163 L41.6326531,44.0816327 L43.1020408,44.0816327 L43.1020408,46.0408163 Z M44.5714286,42.122449 L23.0204082,42.122449 L23.0204082,35.2653061 L44.5714286,35.2653061 L44.5714286,42.122449 Z M44.5714286,33.3061224 L23.0204082,33.3061224 L23.0204082,26.9387755 L44.5714286,26.9387755 L44.5714286,33.3061224 Z M46.0408163,24.9795918 L21.0612245,24.9795918 L21.0612245,23.5102041 L46.0408163,23.5102041 L46.0408163,24.9795918 Z" id="Shape"></path>
                        <rect id="Rectangle" x="32.3076923" y="28.6153846" width="3.69230769" height="1.84615385"></rect>
                        <rect id="Rectangle" x="32.3076923" y="36.9230769" width="3.69230769" height="1.84615385"></rect>
                        <rect id="Rectangle" x="17.5384615" y="14.7692308" width="1.84615385" height="4.61538462"></rect>
                        <rect id="Rectangle" x="10.1538462" y="14.7692308" width="1.84615385" height="4.61538462"></rect>
                        <rect id="Rectangle" x="6.46153846" y="40.6153846" width="3.69230769" height="1.84615385"></rect>
                    </g>
                    <g id="Group-7" transform="translate(30.000000, 31.000000)">
                        <circle id="Oval" fill="#A8C30C" cx="14" cy="14" r="14"></circle>
                        <text id="5" font-family="Montserrat-SemiBold, Montserrat" font-size="18" font-weight="500" fill="#FFFFFF">
                            <tspan x="8" y="21">5</tspan>
                        </text>
                    </g>
                </g>
            </g>
        </g>
    </g>
</svg>