<?xml version="1.0" encoding="UTF-8"?>
<svg width="90px" height="90px" viewBox="0 0 90 90" version="1.1" xmlns="http://www.w3.org/2000/svg" xmlns:xlink="http://www.w3.org/1999/xlink">
    <!-- Generator: Sketch 53.2 (72643) - https://sketchapp.com -->
    <title>gift-svg</title>
    <desc>Created with Sketch.</desc>
    <g id="Page-1" stroke="none" stroke-width="1" fill="none" fill-rule="evenodd">
        <g id="mebel-na-zakaz" transform="translate(-345.000000, -3050.000000)">
            <g id="ПРЕИМУЩЕСТВА" transform="translate(0.000000, 2595.000000)">
                <g id="4-преимущество" transform="translate(163.000000, 455.000000)">
                    <g id="gift-svg" transform="translate(182.000000, 0.000000)">
                        <rect id="Rectangle" stroke="#676767" opacity="0.0140206473" x="0.5" y="0.5" width="89" height="89"></rect>
                        <path d="M82.6280864,33.0356191 L51.0949238,33.0356191 C50.9379978,32.3937301 50.673711,31.7940224 50.322365,31.255936 L55.9228672,31.255936 C61.217199,31.255936 65.5246163,26.9369401 65.5246163,21.627968 C65.5246163,16.3191793 61.217199,12 55.9228672,12 C50.6285353,12 46.321118,16.3189959 46.321118,21.627968 L46.321118,28.6936986 C46.0526246,28.6551853 45.7788271,28.6340946 45.4999086,28.6340946 C45.22099,28.6340946 44.9470096,28.6551853 44.6785162,28.6936986 L44.6785162,21.627968 C44.6785162,16.3191793 40.3712818,12 35.0769499,12 C29.7826181,12 25.4752008,16.3189959 25.4752008,21.627968 C25.4752008,26.9367567 29.7826181,31.255936 35.0769499,31.255936 L40.6774521,31.255936 C40.3261061,31.7940224 40.0620022,32.3937301 39.9048933,33.0356191 L8.37173071,33.0356191 C7.61398667,33.0356191 7,33.6514657 7,34.4110955 L7,45.048113 C7,45.8077428 7.61398667,46.4235894 8.37173071,46.4235894 L9.65567065,46.4235894 L9.65567065,74.6245236 C9.65567065,75.3841534 10.2696573,76 11.0274014,76 L79.9724157,76 C80.7301598,76 81.3441465,75.3841534 81.3441465,74.6245236 L81.3441465,46.4235894 L82.6282693,46.4235894 C83.3860133,46.4235894 84,45.8077428 84,45.048113 L84,34.4110955 C83.9998171,33.6514657 83.3858304,33.0356191 82.6280864,33.0356191 Z M81.2563557,43.6726366 L53.7511431,43.6726366 C53.792295,43.3405049 53.815523,43.0039717 53.815523,42.6639539 C53.815523,40.5127088 52.9800476,38.4902083 51.4630963,36.9689314 L50.2839566,35.7865719 L81.2563557,35.7865719 L81.2563557,43.6726366 Z M39.7216301,43.6726366 C39.6587134,43.3436227 39.6259748,43.0063558 39.6259748,42.6639539 C39.6259748,41.2473966 40.1761302,39.9157521 41.175116,38.9140385 L44.2940658,35.7865719 L46.4039705,35.7865719 L49.5229204,38.9140385 C50.5219061,39.9157521 51.0720616,41.2473966 51.0720616,42.6639539 C51.0720616,43.0063558 51.03914,43.3436227 50.9764062,43.6726366 L39.7216301,43.6726366 Z M62.7811549,21.627968 C62.7811549,25.3103934 59.8796701,28.3254377 56.2486075,28.496547 C56.2692749,28.4761899 56.2910397,28.4571167 56.3115242,28.4365762 C58.125318,26.618013 59.1241208,24.2001089 59.1241208,21.6283348 C59.1241208,19.0563773 58.125318,16.6384732 56.3104268,14.8188096 C56.2901252,14.7984526 56.2685433,14.7795627 56.2480588,14.7593891 C59.8793043,14.9301315 62.7811549,17.9453592 62.7811549,21.627968 Z M49.0645794,21.627968 C49.0645794,18.993839 50.5500723,16.7019285 52.7243569,15.5472619 C53.3275527,15.8663725 53.8806345,16.2738803 54.3717141,16.7652004 C55.6671766,18.0642004 56.3804765,19.7912485 56.3804765,21.6283348 C56.3804765,23.4654211 55.6671766,25.1924693 54.3722628,26.490919 C53.082653,27.7823996 51.3729279,28.4963636 49.5549274,28.5049832 L49.0645794,28.5049832 L49.0645794,21.627968 L49.0645794,21.627968 Z M41.9350548,21.627968 L41.9350548,28.5049832 L41.4448897,28.5049832 C39.6268892,28.4963636 37.9169812,27.7823996 36.628103,26.4914692 C35.3326405,25.1924693 34.6193406,23.4654211 34.6193406,21.6283348 C34.6193406,19.7912485 35.3326405,18.0642004 36.6270056,16.7664842 C37.1189997,16.2742471 37.6722644,15.8665559 38.2756431,15.5472619 C40.4495619,16.7019285 41.9350548,18.9936556 41.9350548,21.627968 Z M28.2186622,21.627968 C28.2186622,17.9453592 31.1205128,14.9303149 34.7515754,14.7593891 C34.7305422,14.7799295 34.7087774,14.7993696 34.6879271,14.8200934 C32.8744991,16.6386566 31.8756963,19.0565607 31.8756963,21.6285182 C31.8756963,24.2002923 32.8744991,26.6181964 34.6886587,28.4373098 C34.7089603,28.4576668 34.7303593,28.4765567 34.7508438,28.4967304 C31.1199641,28.3252543 28.2186622,25.31021 28.2186622,21.627968 Z M45.4999086,31.3850474 C46.6697205,31.3850474 47.6838867,32.0573803 48.184477,33.0356191 L42.8151572,33.0356191 C43.3159304,32.0573803 44.3300966,31.3850474 45.4999086,31.3850474 Z M9.74346142,35.7865719 L40.4140798,35.7865719 L39.2349401,36.9689314 C37.7179888,38.4902083 36.8825133,40.5127088 36.8825133,42.6639539 C36.8825133,43.0039717 36.9057413,43.3405049 36.9468932,43.6726366 L9.74346142,43.6726366 L9.74346142,35.7865719 Z M78.6005021,73.2490472 L12.3991321,73.2490472 L12.3991321,46.4235894 L37.8077914,46.4235894 C38.1792561,47.1276499 38.65735,47.7798092 39.2349401,48.3589764 C40.2339258,49.36069 40.7840813,50.6923346 40.7840813,52.1088919 C40.7840813,53.5254492 40.2339258,54.8570937 39.235123,55.8588073 C38.0301947,57.0668424 36.0697172,57.0668424 34.8647889,55.8588073 C34.3292653,55.3214546 33.4606854,55.321638 32.9249788,55.8588073 C32.3892722,56.3959767 32.3892722,57.2669284 32.9251617,57.8039144 C34.0624179,58.944276 35.5561412,59.5144568 37.0500474,59.5144568 C38.5439536,59.5144568 40.0376769,58.944276 41.1749331,57.8039144 C42.6920672,56.2828209 43.5275427,54.260137 43.5275427,52.1088919 C43.5275427,49.9622317 42.6951765,47.9437659 41.1840779,46.4235894 L49.5135926,46.4235894 C48.002677,47.9437659 47.1703108,49.9622317 47.1703108,52.1088919 C47.1703108,54.260137 48.0057862,56.2828209 49.5229204,57.8039144 C49.7906822,58.0725908 50.1418453,58.2068373 50.4928254,58.2068373 C50.8438056,58.2068373 51.1949687,58.0725908 51.4629134,57.8039144 C51.99862,57.266745 51.99862,56.3957933 51.4627305,55.8588073 C50.4639276,54.8572771 49.9137722,53.5254492 49.9137722,52.1088919 C49.9137722,50.6923346 50.4639276,49.36069 51.4627305,48.3589764 C52.0403206,47.7798092 52.5184144,47.1274665 52.890062,46.4235894 L78.6005021,46.4235894 L78.6005021,73.2490472 Z" id="Shape" fill="#A8C30C" fill-rule="nonzero"></path>
                    </g>
                </g>
            </g>
        </g>
    </g>
</svg>