<?xml version="1.0" encoding="UTF-8"?>
<svg width="60px" height="60px" viewBox="0 0 60 60" version="1.1" xmlns="http://www.w3.org/2000/svg" xmlns:xlink="http://www.w3.org/1999/xlink">
    <!-- Generator: Sketch 53.2 (72643) - https://sketchapp.com -->
    <title>pencil</title>
    <desc>Created with Sketch.</desc>
    <g id="Page-1" stroke="none" stroke-width="1" fill="none" fill-rule="evenodd">
        <g id="mebel-na-zakaz" transform="translate(-150.000000, -1723.000000)">
            <g id="как-заказать" transform="translate(150.000000, 1529.000000)">
                <g id="pencil" transform="translate(0.000000, 194.000000)">
                    <rect id="Rectangle" fill="#FFFFFF" opacity="0.00806826637" x="0" y="0" width="60" height="60"></rect>
                    <g id="pencil-ruler-svgrepo-com" transform="translate(5.000000, 5.000000)" fill="#000000" fill-rule="nonzero">
                        <path d="M44.324355,19.3548387 L32.1622586,19.3548387 L32.1622586,0 L17.5677429,0 L17.5677429,19.3548387 L7.5680672,19.3548387 L0,25 L7.5680672,30.6451613 L17.5677429,30.6451613 L17.5677429,50 L32.1622586,50 L32.1622586,30.6451613 L44.324355,30.6451613 C47.453257,30.6451613 50,28.1120968 50,25 C50,21.8870968 47.453257,19.3548387 44.324355,19.3548387 Z M19.1893557,1.61290323 L30.5406457,1.61290323 L30.5406457,4.83870968 L28.1082264,4.83870968 L28.1082264,6.4516129 L30.5406457,6.4516129 L30.5406457,9.67741935 L26.4866136,9.67741935 L26.4866136,11.2903226 L30.5406457,11.2903226 L30.5406457,14.516129 L28.1082264,14.516129 L28.1082264,16.1290323 L30.5406457,16.1290323 L30.5406457,19.3548387 L19.1893557,19.3548387 L19.1893557,1.61290323 Z M7.83806574,28.8306452 L2.70322863,25 L7.83806574,21.1693548 L7.83806574,28.8306452 Z M30.5406457,33.8709677 L28.1082264,33.8709677 L28.1082264,35.483871 L30.5406457,35.483871 L30.5406457,38.7096774 L26.4866136,38.7096774 L26.4866136,40.3225806 L30.5406457,40.3225806 L30.5406457,43.5483871 L28.1082264,43.5483871 L28.1082264,45.1612903 L30.5406457,45.1612903 L30.5406457,48.3870968 L19.1893557,48.3870968 L19.1893557,30.6451613 L30.5406457,30.6451613 L30.5406457,33.8709677 Z M38.64871,29.0322581 L9.4596786,29.0322581 L9.4596786,25.8064516 L38.64871,25.8064516 L38.64871,29.0322581 Z M38.64871,24.1935484 L9.4596786,24.1935484 L9.4596786,20.9677419 L38.64871,20.9677419 L38.64871,24.1935484 Z M41.8919357,29.0322581 L40.2703229,29.0322581 L40.2703229,20.9677419 L41.8919357,20.9677419 L41.8919357,29.0322581 Z M44.324355,29.0322581 L43.5135486,29.0322581 L43.5135486,20.9677419 L44.324355,20.9677419 C46.5597483,20.9677419 48.3783871,22.7766129 48.3783871,25 C48.3783871,27.2233871 46.5597483,29.0322581 44.324355,29.0322581 Z" id="Shape"></path>
                        <rect id="Rectangle" x="35" y="34" width="2" height="2"></rect>
                        <rect id="Rectangle" x="38" y="34" width="2" height="2"></rect>
                        <rect id="Rectangle" x="42" y="34" width="2" height="2"></rect>
                        <rect id="Rectangle" x="6" y="14" width="2" height="2"></rect>
                        <rect id="Rectangle" x="9" y="14" width="2" height="2"></rect>
                        <rect id="Rectangle" x="12" y="14" width="2" height="2"></rect>
                    </g>
                    <g id="2" transform="translate(30.000000, 31.000000)">
                        <g id="Group-9">
                            <circle id="Oval" fill="#A8C30C" cx="14" cy="14" r="14"></circle>
                            <text id="2" font-family="Montserrat-SemiBold, Montserrat" font-size="18" font-weight="500" fill="#FFFFFF">
                                <tspan x="9" y="19">2</tspan>
                            </text>
                        </g>
                    </g>
                </g>
            </g>
        </g>
    </g>
</svg>