<?xml version="1.0" encoding="UTF-8"?>
<svg width="90px" height="90px" viewBox="0 0 90 90" version="1.1" xmlns="http://www.w3.org/2000/svg" xmlns:xlink="http://www.w3.org/1999/xlink">
    <!-- Generator: Sketch 53.2 (72643) - https://sketchapp.com -->
    <title>Sofa_svg</title>
    <desc>Created with Sketch.</desc>
    <g id="Page-1" stroke="none" stroke-width="1" fill="none" fill-rule="evenodd">
        <g id="mebel-na-zakaz" transform="translate(-1470.000000, -2671.000000)">
            <g id="ПРЕИМУЩЕСТВА" transform="translate(0.000000, 2595.000000)">
                <g id="3-преимущество" transform="translate(1274.000000, 76.000000)">
                    <g id="Sofa_svg" transform="translate(196.000000, 0.000000)">
                        <rect id="Rectangle" stroke="#676767" opacity="0.0130208333" x="0.5" y="0.5" width="89" height="89"></rect>
                        <path d="M7.9842513,32.3789582 C7.9842513,32.3789582 3,34.0661488 3,26.6327988 C3,20.4693772 9.64436774,18.8035299 17.9499161,24.4675174 C17.9499161,24.4675174 20.3588586,21.6352569 24.1796095,21.8849739 C28.0000056,22.1352245 36.0565365,29.8812544 42.368881,30.5060805 C48.6815802,31.1298395 50.0937433,29.3823539 49.7613653,32.6297423 C49.429342,35.8781979 48.9305976,42 55.1599363,42 C61.3892749,42 61.668444,36.3941731 66,37.8759341 M86,52.3878945 C85.6920788,53.5681414 85.329337,56.5611925 84.3293941,56.5611925 C58.32376,57.5485093 33.0058758,56.5611925 7.00059769,56.5611925 C4.66680437,51.6246085 5.66674724,45.2062586 7.66734493,39.7752255 C8.66764378,36.3198802 8.66764378,32.8640078 7.3341493,29.9015303 C7.00059769,28.9142135 6.33349448,27.9268967 5,28.3285707 C5.6656793,27.5357653 7.17004333,28.1103384 5,28.3285707 C6.66704608,25.9517359 9.00083941,26.9390527 10.0011383,29.9015303 C11.6681843,35.3315091 11.0010811,41.2569914 10.6678855,46.6869702 C10.6678855,47.6748142 11.3346327,49.6499749 12.3349316,49.6499749 C31.0056341,49.1555258 50.0095323,48.6626581 68.6802349,49.6499749 C71.6804194,45.6996534 74.2103568,35.1928736 84.0083018,39.6075977 M12,50 C13.7757284,49.2704611 15.1071693,47.2948024 16.4386101,46.3075002 C17.1043306,45.8141126 18.1030889,45.3201979 18.7691648,45.3201979 C33.4160806,44.3323686 48.3960343,44.8268104 63.0433056,44.8268104 C63.709026,42.3577641 64.7077844,39.8897721 66.3722632,38.4085551 C71.6983821,34.4593462 77.9173412,35.7782091 83.3493782,39.3958574 C84.9847118,40.4854216 86.6783358,42.8522059 87,46.1609599 M69,50 L63,45 M20,38 C19.7564299,40.4700043 19.1650485,43.1122536 18,45 M18,24 C18.9475858,25.693892 19.6305591,27.7643821 20,30 M77,58 L80,74 M14,57 L11,74" id="sofa_svg" stroke="#A8C30C" stroke-width="3" stroke-linecap="round" stroke-linejoin="round"></path>
                    </g>
                </g>
            </g>
        </g>
    </g>
</svg>