<svg width="40" height="40" viewBox="0 0 40 40" fill="none" xmlns="http://www.w3.org/2000/svg">
<mask id="mask0_221_258" style="mask-type:luminance" maskUnits="userSpaceOnUse" x="0" y="2" width="40" height="36">
<path d="M39.9436 2.40509H0.196777V37.595H39.9436V2.40509Z" fill="white"/>
</mask>
<g mask="url(#mask0_221_258)">
<path d="M2.02716 25.9843C3.09669 26.9737 4.4697 27.509 6.22484 27.6206C7.14841 27.6792 8.0875 27.6711 8.99656 27.664C9.3998 27.6609 9.80304 27.6581 10.2063 27.6599C10.339 27.6609 10.4716 27.6599 10.5948 27.6599H10.6362L10.6415 27.6719C10.6509 27.693 10.659 27.7083 10.6618 27.7078C10.6288 28.4717 10.5955 29.236 10.5618 30.0003C10.4977 31.456 10.4312 32.9613 10.3745 34.4423C10.3647 34.9251 10.3861 35.4082 10.4383 35.8884C10.4581 36.1026 10.5382 36.3071 10.6693 36.478C10.8005 36.6489 10.9774 36.7793 11.1796 36.8545C12.2097 37.292 13.3206 37.5084 14.4401 37.4897C14.8457 37.4887 15.251 37.4671 15.6544 37.4249C16.3682 37.3522 16.5349 37.0188 16.6062 36.3889C16.88 33.8887 16.883 31.3661 16.6154 28.8651C16.5811 28.5363 16.5565 28.2066 16.5278 27.8256C16.5207 27.7292 16.5132 27.6297 16.5052 27.5267C16.7055 27.6364 16.8993 27.7426 17.0868 27.8454C17.6375 28.1466 18.1575 28.4312 18.663 28.7206C19.945 29.4542 21.2368 30.2223 22.4862 30.9646C25.1414 32.5431 27.8873 34.174 30.7048 35.5808C30.8881 35.672 31.0696 35.7679 31.2504 35.8633C32.1767 36.353 33.1342 36.858 34.3344 36.7692C35.1757 36.7059 35.5425 36.578 35.5177 35.6195C35.5104 35.3375 35.4952 35.0517 35.4805 34.7755C35.4569 34.3358 35.4331 33.8813 35.4407 33.4375C35.4901 30.6094 35.56 27.8456 35.622 25.516C35.6326 25.1213 35.6686 24.7211 35.7033 24.3337C35.7154 24.1993 35.7276 24.0656 35.7385 23.9324C36.7623 23.8039 37.7149 23.3429 38.4496 22.6207C39.1845 21.8985 39.6602 20.9553 39.8038 19.9364C39.9883 18.6262 39.8455 17.6014 39.3544 16.7135C38.5435 15.2457 37.0919 14.6332 35.7688 14.1885V14.0527C35.7688 13.8753 35.7704 13.7049 35.7676 13.5342C35.7529 12.5759 35.7369 11.6174 35.7205 10.6589C35.6815 8.36924 35.6415 6.00165 35.6225 3.67336C35.6172 3.05754 35.3693 2.75251 35.162 2.60451C34.8509 2.38268 34.398 2.34666 33.9195 2.50583C33.7347 2.57408 33.5574 2.66132 33.3909 2.76614C33.3331 2.79985 33.2754 2.83358 33.2174 2.86482C33.0501 2.95641 32.8838 3.0503 32.7177 3.14436C32.424 3.31027 32.1205 3.48179 31.8164 3.6357C30.9245 4.08615 30.0304 4.53257 29.1342 4.97502C27.3336 5.86891 25.4719 6.79309 23.668 7.75522C21.5428 8.88902 19.3265 10.1725 17.0811 11.5702C16.9897 11.6269 16.8996 11.6853 16.8109 11.7415C16.0992 12.1979 15.4847 12.5925 14.6281 12.2868C14.5204 12.2558 14.4073 12.2478 14.2962 12.2633C14.2728 12.2651 14.2494 12.2669 14.2263 12.2679C13.847 12.2855 13.4677 12.2988 13.0873 12.312C12.2116 12.3427 11.3062 12.3745 10.4179 12.46C8.43003 12.652 6.94112 12.9607 5.58972 13.4604C3.59628 14.1976 2.30491 15.2054 1.52581 16.6323C0.604283 18.2647 0.194076 20.1349 0.348063 22.0019C0.456417 23.2323 0.74405 24.7964 2.02716 25.9843ZM14.4285 27.2523V35.5431H12.6968L12.4659 27.6233L14.4285 27.2523ZM3.56476 17.045C4.1796 16.0622 5.19752 15.3393 6.50734 14.9543C7.60299 14.6224 8.72213 14.3732 9.85532 14.2091C11.0169 14.0504 12.1714 13.9531 13.3936 13.85C13.8566 13.811 14.324 13.7715 14.798 13.7281L14.6299 25.0682L14.4778 25.0901C14.2617 25.1264 14.0436 25.1493 13.8247 25.159C13.0298 25.1767 12.224 25.2304 11.4445 25.2825C9.73988 25.3954 7.97717 25.5125 6.24793 25.2585L6.21 25.253C5.86975 25.2037 5.51732 25.1516 5.1835 25.07C3.77423 24.727 2.93739 23.8859 2.62469 22.4977C2.40504 21.5726 2.37513 20.6127 2.53679 19.6756C2.69846 18.7387 3.04833 17.8439 3.56542 17.045H3.56476ZM17.0357 13.6923C18.9637 12.3386 31.4704 6.05937 33.7655 5.27828C33.8949 11.8507 33.7987 18.5379 33.7068 25.0074C33.6635 28.0155 33.6192 31.1231 33.5972 34.2013C31.4911 33.1013 29.4144 31.9294 27.4038 30.7942C24.0374 28.8942 20.5577 26.93 16.9605 25.3251C17.1663 20.7974 17.1903 17.095 17.0364 13.6923H17.0357ZM35.7977 21.5194V16.0288C37.0088 16.3863 37.7962 17.5878 37.7342 19.0269C37.6812 20.2641 36.8792 21.2807 35.7985 21.5191L35.7977 21.5194Z" fill="#C4BEFF"/>
</g>
</svg>
