<svg width="40" height="40" viewBox="0 0 40 40" fill="none" xmlns="http://www.w3.org/2000/svg">
<g clip-path="url(#clip0_221_313)">
<path d="M30.8335 14.9766V39.9766H40.0002V14.9766H30.8335ZM38.3335 38.31H32.5002V16.6433H38.3335V38.31Z" fill="#C4BEFF"/>
<path d="M20.8335 19.1426V39.9759H29.1668V19.1426H20.8335ZM27.5002 38.3092H22.5002V20.8092H27.5002V38.3092Z" fill="#C4BEFF"/>
<path d="M10.8335 23.3096V39.9762H19.1668V23.3096H10.8335ZM17.5002 38.3096H12.5002V24.9762H17.5002V38.3096Z" fill="#C4BEFF"/>
<path d="M0 28.3096V39.9762H9.16667V28.3096H0ZM7.5 38.3096H1.66667V29.9762H7.5V38.3096Z" fill="#C4BEFF"/>
<path d="M27.4233 0.0234375L26.8634 1.5931L32.9268 3.75496L4.60352 18.7033L5.38151 20.1772L33.4889 5.34285L31.4089 11.1764L32.9788 11.7365L36.0574 3.10197L27.4233 0.0234375Z" fill="#C4BEFF"/>
</g>
<defs>
<clipPath id="clip0_221_313">
<rect width="40" height="40" fill="white"/>
</clipPath>
</defs>
</svg>
