<?xml version="1.0" encoding="UTF-8"?>
<svg width="29px" height="29px" viewBox="0 0 29 29" version="1.1" xmlns="http://www.w3.org/2000/svg" xmlns:xlink="http://www.w3.org/1999/xlink">
    <!-- Generator: Sketch 53.2 (72643) - https://sketchapp.com -->
    <title>check-circle-svgrepo-com</title>
    <desc>Created with Sketch.</desc>
    <g id="Page-1" stroke="none" stroke-width="1" fill="none" fill-rule="evenodd">
        <g id="check-circle-svgrepo-com" transform="translate(0.000000, -1.000000)" fill="#C4BEFF" fill-rule="nonzero">
            <path d="M11.8421053,20.9210526 C11.5373684,20.8978421 11.2541053,20.7560526 11.0526,20.5263158 L6.31575789,15.7894737 C6.21022105,15.5685789 6.17578421,15.3203684 6.2172,15.0789474 C6.25861579,14.8375263 6.37383158,14.6150526 6.54699474,14.4418421 C6.72015789,14.2686316 6.94274211,14.1533684 7.1841,14.112 C7.42545789,14.0706316 7.67373158,14.1050526 7.89470526,14.2105263 L11.7947368,18.1105263 L25.2631579,4.73690526 C25.4840526,4.63136842 25.7324211,4.59693158 25.9736842,4.63834737 C26.2151053,4.67976316 26.4377368,4.79497895 26.6107895,4.96814211 C26.784,5.14130526 26.8992632,5.36388947 26.9406316,5.60524737 C26.982,5.84662105 26.9475789,6.09487895 26.8421053,6.31585263 L12.6315789,20.5263158 C12.4301053,20.7560526 12.1466842,20.8978421 11.8421053,20.9210526 Z" id="Path"></path>
            <path d="M14.2105263,30 C11.6707895,29.9958947 9.17842105,29.3112632 6.99301579,28.0173158 C4.80759474,26.7232105 3.00893684,24.8671579 1.78419474,22.6421053 C0.853215789,20.9842105 0.277831579,19.1505789 0.0947210526,17.2578947 C-0.194257895,14.4822632 0.340421053,11.6829632 1.63204737,9.20919474 C2.92368947,6.73544211 4.91510526,4.69673684 7.35787895,3.34741579 C9.01580526,2.41643684 10.8494842,1.84105263 12.7421053,1.65794211 C14.6275263,1.45511053 16.5345789,1.63776316 18.3473684,2.19478421 C18.5090526,2.22710526 18.6623684,2.29286842 18.7972105,2.38787368 C18.9320526,2.48286316 19.0455789,2.60499474 19.1305263,2.74643684 C19.2154737,2.88786316 19.2699474,3.04548947 19.2904737,3.20919474 C19.3108421,3.37288421 19.2969474,3.53905263 19.2494211,3.69704211 C19.2018947,3.85503158 19.1218421,4.00135263 19.0144737,4.12661053 C18.9071053,4.25188421 18.7747895,4.35334737 18.6260526,4.42447895 C18.4771579,4.49562632 18.315,4.53487895 18.1501579,4.53972632 C17.9853158,4.54458947 17.8211053,4.51493684 17.6684211,4.45267895 C16.1346316,3.9915 14.5242632,3.84118421 12.9315789,4.01057368 C11.3573684,4.17176842 9.83201053,4.64976316 8.44735263,5.41583684 C7.11334737,6.15178421 5.93388947,7.13823158 4.97366842,8.3211 C3.98502632,9.52608947 3.24675789,10.9162263 2.80211053,12.4101158 C2.35747895,13.9040526 2.21538947,15.4716316 2.38419474,17.0210526 C2.54538947,18.5952632 3.0234,20.1206842 3.78945789,21.5052632 C4.52540526,22.8393158 5.51185263,24.0187895 6.69472105,24.9789474 C7.89971053,25.9676842 9.28984737,26.7058421 10.7837368,27.1504737 C12.2775789,27.5951053 13.8451579,27.7372105 15.3947368,27.5684211 C16.9689474,27.4072105 18.4942105,26.9292632 19.8789474,26.1631579 C21.213,25.4272105 22.3923158,24.4408421 23.3526316,23.2578947 C24.3412105,22.053 25.0795263,20.6627368 25.5241579,19.1688947 C25.9687895,17.6750526 26.1108947,16.1074737 25.9421053,14.5578947 C25.9264737,14.3951053 25.9432105,14.2308947 25.9910526,14.0745789 C26.0390526,13.9182632 26.1172105,13.7728421 26.2214211,13.6468421 C26.3254737,13.5206842 26.4533684,13.4163158 26.5978421,13.3397368 C26.7423158,13.263 26.9003684,13.2156316 27.0631579,13.2 C27.2259474,13.1845263 27.3901579,13.2011053 27.5464737,13.2491053 C27.7027895,13.2969474 27.8482105,13.3752632 27.9742105,13.4793158 C28.1003684,13.5833684 28.2047368,13.7114211 28.2813158,13.8557368 C28.3580526,14.0002105 28.4054211,14.1582632 28.4210526,14.3210526 C28.7085789,17.0984211 28.1715789,19.8988421 26.877,22.3728947 C25.5824211,24.8467895 23.5877368,26.8845789 21.1421053,28.2315789 C19.4665263,29.2007368 17.6044737,29.8034211 15.6789474,30 C15.1894737,30 14.6842105,30 14.2105263,30 Z" id="Path"></path>
        </g>
    </g>
</svg>