<svg width="40" height="40" viewBox="0 0 40 40" fill="none" xmlns="http://www.w3.org/2000/svg">
<path d="M27.6666 35.4663L26.4666 34.5996C25.4 33.8663 24.8666 32.4663 25.2 31.133V31.0664V30.333H14.6L14.8 31.133C15.1334 32.4664 14.6 33.8664 13.5334 34.5996L12.3334 35.4663C11.6667 35.9329 12 36.9996 12.8 36.9996H27.2C28 36.9996 28.3334 35.933 27.6666 35.4663ZM14.4 35.6663C15.6666 34.7329 16.3334 33.1996 16.2 31.6663C16.2 31.6663 23.7334 31.3996 23.7334 31.6663C23.6667 33.1996 24.3334 34.7329 25.5334 35.6663C25.6 35.6663 14.4 35.6663 14.4 35.6663Z" fill="#C4BEFF"/>
<path d="M37 1H3C1.33336 1 0 2.33336 0 4V25.6666H40V4C40 2.33336 38.6666 1 37 1ZM38.6666 24.3334H1.33336V4C1.33336 3.06664 2.06672 2.33336 3 2.33336H37C37.9334 2.33336 38.6666 3.06672 38.6666 4V24.3334Z" fill="#C4BEFF"/>
<path d="M27.6664 35.667H12.3331C11.3998 35.667 10.6665 36.4004 10.6665 37.3336C10.6665 38.267 11.3999 39.0003 12.3331 39.0003H27.6665C28.5999 39.0003 29.3331 38.2669 29.3331 37.3336C29.3331 36.4004 28.5998 35.667 27.6664 35.667ZM27.6664 37.667H12.3331C12.1331 37.667 11.9998 37.5336 11.9998 37.3336C11.9998 37.1336 12.1331 37.0003 12.3331 37.0003H27.6665C27.8665 37.0003 27.9999 37.1336 27.9999 37.3336C27.9999 37.5336 27.8664 37.667 27.6664 37.667Z" fill="#C4BEFF"/>
<path d="M0 24.333V28.6664C0 30.333 1.33336 31.6664 3 31.6664H37C38.6666 31.6664 40 30.333 40 28.6664V24.333H0ZM38.6666 28.6663C38.6666 29.5996 37.9333 30.3329 37 30.3329H3C2.06664 30.3329 1.33336 29.5996 1.33336 28.6663V25.6663H38.6667L38.6666 28.6663Z" fill="#C4BEFF"/>
</svg>
