<?xml version="1.0" encoding="UTF-8"?>
<svg width="36px" height="36px" viewBox="0 0 36 36" version="1.1" xmlns="http://www.w3.org/2000/svg" xmlns:xlink="http://www.w3.org/1999/xlink">
    <!-- Generator: Sketch 53.2 (72643) - https://sketchapp.com -->
    <title>phone-incoming-svgrepo-com</title>
    <desc>Created with Sketch.</desc>
    <g id="Page-1" stroke="none" stroke-width="1" fill="none" fill-rule="evenodd">
        <g id="phone-incoming-svgrepo-com" fill-rule="nonzero">
            <path d="M34.7952,24.4224 C34.6584,24.1992 34.434,24.042 34.17,23.9988 L34.1652,23.9976 L23.4024,22.2888 C23.3604,22.2816 23.3112,22.278 23.262,22.278 C23.0136,22.278 22.788,22.3776 22.6248,22.5396 L22.6248,22.5396 C21.8136,23.3556 21.192,24.3588 20.8296,25.4808 L20.8152,25.5336 C15.996,23.5656 12.246,19.8156 10.3248,15.1236 L10.2792,14.9976 C11.4528,14.6208 12.456,13.998 13.2708,13.1868 L13.2708,13.1868 C13.434,13.0236 13.5348,12.798 13.5348,12.5496 C13.5348,12.5004 13.5312,12.4524 13.5228,12.4056 L13.524,12.4104 L11.814,1.6476 C11.7708,1.3788 11.6136,1.1532 11.394,1.0188 L11.3904,1.0164 C10.7844,0.6552 10.0776,0.39 9.3216,0.2652 L9.2868,0.2604 C8.9088,0.1764 8.4744,0.1272 8.0292,0.1272 C7.9992,0.1272 7.9692,0.1272 7.9392,0.1284 L7.944,0.1284 L7.9368,0.1284 C3.7404,0.1572 0.3456,3.5544 0.3204,7.7496 L0.3204,7.752 C0.3384,23.0652 12.7464,35.4744 28.0584,35.4924 L28.0608,35.4924 C32.2608,35.4648 35.658,32.0676 35.6856,27.8712 L35.6856,27.8688 C35.6856,27.8448 35.6856,27.816 35.6856,27.7872 C35.6856,27.36 35.6424,26.9436 35.5584,26.5416 L35.5656,26.5812 C35.4348,25.7712 35.1648,25.044 34.7808,24.3936 L34.7964,24.4224 L34.7952,24.4224 Z M28.0596,33.6912 C13.74,33.6744 2.136,22.0704 2.1204,7.752 L2.1204,7.7508 C2.1432,4.5432 4.7388,1.9488 7.9452,1.9272 L7.9476,1.9272 C7.9668,1.9272 7.9908,1.9272 8.0136,1.9272 C8.34,1.9272 8.658,1.9632 8.9652,2.0304 L8.9364,2.0244 C9.3756,2.0964 9.7704,2.2176 10.14,2.3844 L10.11,2.3724 L11.6724,12.2148 C10.9188,12.8484 9.9876,13.296 8.964,13.4748 L8.9292,13.4796 C8.5032,13.5564 8.1852,13.9236 8.1852,14.3664 C8.1852,14.472 8.2032,14.5728 8.2368,14.6664 L8.2344,14.6604 C10.3608,20.7468 15.0684,25.4532 21.0096,27.5352 L21.1548,27.5796 C21.2424,27.6108 21.3432,27.6288 21.4488,27.6288 C21.8904,27.6288 22.2576,27.3108 22.3332,26.8908 L22.3344,26.8848 C22.518,25.8264 22.9656,24.8952 23.6076,24.1308 L23.6004,24.1392 L33.4416,25.7028 C33.6012,26.0556 33.726,26.466 33.7968,26.8956 L33.8004,26.9244 C33.8556,27.1872 33.888,27.4896 33.888,27.7992 C33.888,27.8208 33.888,27.8412 33.888,27.8628 L33.888,27.8592 C33.8688,31.0692 31.2732,33.6672 28.0656,33.69 L28.0632,33.69 L28.0596,33.6912 Z" id="Shape" fill="#C4BEFF"></path>
            <path d="M22.0872,13.4844 L22.0896,13.4868 C22.1568,13.632 22.2564,13.752 22.3812,13.842 L22.3836,13.8444 C22.41,13.8648 22.4388,13.8852 22.47,13.9032 L22.4736,13.9056 C22.5996,13.9872 22.7532,14.0364 22.9188,14.0412 L22.92,14.0412 L31.4064,14.0412 C31.9032,14.0412 32.3064,13.638 32.3064,13.1412 C32.3064,12.6444 31.9032,12.2412 31.4064,12.2412 L31.4064,12.2412 L25.092,12.2412 L35.4372,1.8972 C35.6004,1.734 35.7,1.5096 35.7,1.2612 C35.7,0.7632 35.2968,0.36 34.7988,0.36 C34.5492,0.36 34.3248,0.4608 34.1616,0.624 L34.1616,0.624 L23.8188,10.9668 L23.8188,4.6548 C23.8188,4.158 23.4156,3.7548 22.9188,3.7548 C22.422,3.7548 22.0188,4.158 22.0188,4.6548 L22.0188,4.6548 L22.0188,13.14 C22.02,13.2588 22.044,13.3716 22.0872,13.4748 L22.0848,13.4688 L22.0872,13.4844 Z" id="Shape" fill="#FFFFFF"></path>
        </g>
    </g>
</svg>