<svg width="40" height="40" viewBox="0 0 40 40" fill="none" xmlns="http://www.w3.org/2000/svg">
<g clip-path="url(#clip0_221_209)">
<path d="M34.325 12.8638C34.6822 11.7147 34.8267 10.5192 34.7555 9.29769C34.4588 4.21224 30.1506 0.0406901 25.1522 0C25.1261 0 25.1005 0 25.0749 0C21.0347 0 17.4337 2.59277 16.0168 6.35905C14.5369 5.13184 12.6274 4.53369 10.6807 4.72494C7.91097 4.99919 5.49683 6.94417 4.53084 9.67936C4.10116 10.896 3.99577 12.1468 4.21468 13.4058C1.66667 14.6582 0 17.3153 0 20.2327C0 24.4434 3.1543 27.5 7.5 27.5V25.8333C4.06535 25.8333 1.66667 23.5303 1.66667 20.2327C1.66667 17.7588 3.19417 15.5265 5.46794 14.6777L6.1792 14.4124L5.98104 13.68C5.6661 12.5138 5.70679 11.355 6.1023 10.2344C6.85425 8.10628 8.71582 6.59424 10.8451 6.38346C12.7279 6.19954 14.5695 6.97591 15.7662 8.46924L16.8636 9.83887L17.2314 8.12337C18.0351 4.37256 21.3277 1.66667 25.0749 1.66667C25.096 1.66667 25.1172 1.66667 25.1383 1.66667C29.2773 1.70003 32.8451 5.16764 33.0912 9.39535C33.1681 10.708 32.9464 11.984 32.4316 13.1868L31.984 14.2334L33.1165 14.3441C36.0905 14.6354 38.3333 17.1672 38.3333 20.2327C38.3333 23.5303 35.9347 25.8333 32.5 25.8333V27.5C36.8457 27.5 40 24.4434 40 20.2327C40 16.6715 37.6245 13.6719 34.325 12.8638Z" fill="#C4BEFF"/>
<path d="M31.6668 25.8333V17.5H8.3335V25.8333H12.5002V27.5H8.3335V35.8333H12.0835V38.3333H9.16683V40H30.8335V38.3333H27.9168V35.8333H31.6668V27.5H28.3335V25.8333H31.6668ZM26.2502 38.3333H13.7502V35.8333H26.2502V38.3333ZM30.0002 29.1667V34.1667H10.0002V29.1667H30.0002ZM14.1668 27.5V25.8333H26.6668V27.5H14.1668ZM10.0002 24.1667V19.1667H30.0002V24.1667H10.0002Z" fill="#C4BEFF"/>
<path d="M18.3332 20.8333H11.6665V22.5H18.3332V20.8333Z" fill="#C4BEFF"/>
<path d="M28.3332 20.8333H26.6665V22.5H28.3332V20.8333Z" fill="#C4BEFF"/>
<path d="M25.0002 20.8333H23.3335V22.5H25.0002V20.8333Z" fill="#C4BEFF"/>
<path d="M18.3332 30.8333H11.6665V32.5H18.3332V30.8333Z" fill="#C4BEFF"/>
<path d="M28.3332 30.8333H26.6665V32.5H28.3332V30.8333Z" fill="#C4BEFF"/>
<path d="M25.0002 30.8333H23.3335V32.5H25.0002V30.8333Z" fill="#C4BEFF"/>
</g>
<defs>
<clipPath id="clip0_221_209">
<rect width="40" height="40" fill="white"/>
</clipPath>
</defs>
</svg>
