<?xml version="1.0" encoding="UTF-8"?>
<svg width="60px" height="60px" viewBox="0 0 60 60" version="1.1" xmlns="http://www.w3.org/2000/svg" xmlns:xlink="http://www.w3.org/1999/xlink">
    <!-- Generator: Sketch 53.2 (72643) - https://sketchapp.com -->
    <title>smartfone</title>
    <desc>Created with Sketch.</desc>
    <g id="Page-1" stroke="none" stroke-width="1" fill="none" fill-rule="evenodd">
        <g id="mebel-na-zakaz" transform="translate(-150.000000, -1624.000000)">
            <g id="как-заказать" transform="translate(150.000000, 1529.000000)">
                <g id="smartfone" transform="translate(0.000000, 95.000000)">
                    <rect id="Rectangle" fill="#FFFFFF" opacity="0.00806826637" x="0" y="0" width="60" height="60"></rect>
                    <g id="1" transform="translate(15.000000, 4.000000)">
                        <g id="smartphone-svgrepo-com" fill="#404040" fill-rule="nonzero">
                            <circle id="Oval" cx="15.308075" cy="45.924225" r="1.5308075"></circle>
                            <path d="M26.2082145,0 L3.64253174,0 C1.63397351,0 0,1.61387135 0,3.59742741 L0,46.1538164 C0,48.1373724 1.63397351,49.7512438 3.64253174,49.7512438 L26.2082145,49.7512438 C28.2166403,49.7512438 29.8507463,48.1373724 29.8507463,46.1538164 L29.8507463,3.59742741 C29.8507463,1.61387135 28.2165078,0 26.2082145,0 Z M27.8639108,46.1538164 C27.8639108,47.0555279 27.1212317,47.7890106 26.2082145,47.7890106 L3.64253174,47.7890106 C2.7295146,47.7890106 1.98683549,47.0555279 1.98683549,46.1538164 L1.98683549,44.0390523 L27.8639108,44.0390523 L27.8639108,46.1538164 Z M27.8639108,42.0768192 L1.98683549,42.0768192 L1.98683549,6.71188384 L27.8639108,6.71188384 L27.8639108,42.0768192 Z M27.8639108,4.74965071 L1.98683549,4.74965071 L1.98683549,3.59742741 C1.98683549,2.69571588 2.7295146,1.96223313 3.64253174,1.96223313 L26.2082145,1.96223313 C27.1212317,1.96223313 27.8639108,2.69571588 27.8639108,3.59742741 L27.8639108,4.74965071 Z" id="Shape"></path>
                            <path d="M16.6398853,2.29621125 L13.210861,2.29621125 C12.6782545,2.29621125 12.24646,2.81010333 12.24646,3.44431688 C12.24646,4.07853042 12.6782545,4.5924225 13.210861,4.5924225 L16.6398853,4.5924225 C17.1726204,4.5924225 17.6042863,4.07853042 17.6042863,3.44431688 C17.6042863,2.81010333 17.1726204,2.29621125 16.6398853,2.29621125 Z" id="Path"></path>
                            <circle id="Oval" cx="11.0983544" cy="3.44431688" r="1.14810563"></circle>
                        </g>
                        <g transform="translate(15.000000, 27.000000)" id="Group-8">
                            <g>
                                <circle id="Oval" fill="#A8C30C" cx="14" cy="14" r="14"></circle>
                                <text id="1" font-family="Montserrat-SemiBold, Montserrat" font-size="18" font-weight="500" fill="#FFFFFF">
                                    <tspan x="11" y="20">1</tspan>
                                </text>
                            </g>
                        </g>
                    </g>
                </g>
            </g>
        </g>
    </g>
</svg>