<?xml version="1.0" encoding="UTF-8"?>
<svg width="60px" height="60px" viewBox="0 0 60 60" version="1.1" xmlns="http://www.w3.org/2000/svg" xmlns:xlink="http://www.w3.org/1999/xlink">
    <!-- Generator: Sketch 53.2 (72643) - https://sketchapp.com -->
    <title>3d</title>
    <desc>Created with Sketch.</desc>
    <g id="Page-1" stroke="none" stroke-width="1" fill="none" fill-rule="evenodd">
        <g id="mebel-na-zakaz" transform="translate(-150.000000, -1845.000000)">
            <g id="как-заказать" transform="translate(150.000000, 1529.000000)">
                <g id="3d" transform="translate(0.000000, 316.000000)">
                    <rect id="Rectangle" fill="#FFFFFF" opacity="0.00806826637" x="0" y="0" width="60" height="60"></rect>
                    <g id="3d-game-svgrepo-com" transform="translate(5.000000, 4.000000)" fill="#000000" fill-rule="nonzero">
                        <path d="M47.5802737,9.67741389 L40.3222802,9.67741389 L40.3222802,8.87094862 C40.3222802,3.97982651 36.3424671,0 31.4513616,0 L18.5482997,0 C13.6571941,0 9.67738111,3.97982651 9.67738111,8.87094862 L9.67738111,9.67741389 L2.41938762,9.67741389 C1.08555751,9.67741389 0,10.7628057 0,12.0968097 L0,42.7418126 C0,44.0756472 1.08555751,45.1612084 2.41938762,45.1612084 L14.5161563,45.1612084 L14.5161563,48.3870695 L10.4838437,48.3870695 L10.4838437,50 L14.5161563,50 L35.4838437,50 L39.5161563,50 L39.5161563,48.3870695 L35.4838437,48.3870695 L35.4838437,45.1612084 L47.5806124,45.1612084 C48.9144425,45.1612084 50,44.0756472 50,42.7418126 L50,12.0968097 C49.9996613,10.7628057 48.9142731,9.67741389 47.5802737,9.67741389 Z M11.2903062,8.87077927 C11.2903062,4.86842863 14.5459626,1.61276119 18.5482997,1.61276119 L31.4513616,1.61276119 C35.4536987,1.61276119 38.7093551,4.86842863 38.7093551,8.87077927 L38.7093551,10.4837098 C38.7093551,14.4860604 35.4536987,17.7417279 31.4513616,17.7417279 L18.5482997,17.7417279 C14.5459626,17.7417279 11.2903062,14.4860604 11.2903062,10.4837098 L11.2903062,8.87077927 Z M18.5482997,19.3548278 L31.4513616,19.3548278 C34.8900894,19.3548278 37.8715621,17.3838822 39.3432462,14.5162055 L45.1608861,14.5162055 L45.1608861,40.3225861 L4.83860588,40.3225861 L4.83860588,14.5158668 L10.6562458,14.5158668 C12.1280992,17.3838822 15.1095719,19.3548278 18.5482997,19.3548278 Z M33.8707492,48.3867308 L16.1289121,48.3867308 L16.1289121,45.1608697 L33.8707492,45.1608697 L33.8707492,48.3867308 Z M47.5802737,43.5481085 L35.4835049,43.5481085 L14.515987,43.5481085 L2.41938762,43.5481085 C1.97415662,43.5481085 1.61292508,43.1868757 1.61292508,42.7416432 L1.61292508,12.0968097 C1.61292508,11.6515772 1.97415662,11.2903444 2.41938762,11.2903444 L9.71853407,11.2903444 C9.76849343,11.8451492 9.8733234,12.3830185 10.0216773,12.903275 L3.22585016,12.903275 L3.22585016,41.9353473 L46.7738111,41.9353473 L46.7738111,12.9031056 L39.9786614,12.9031056 C40.1261685,12.3830185 40.2309985,11.8443024 40.2818046,11.2901751 L47.5801043,11.2901751 C48.0253353,11.2901751 48.3865669,11.6514078 48.3865669,12.0966403 L48.3865669,42.7418126 L48.3867362,42.7418126 C48.3867362,43.1870451 48.0255047,43.5481085 47.5802737,43.5481085 Z" id="Shape"></path>
                        <path d="M24.0740741,12.0949074 C24.0740741,10.9509164 23.5449527,9.92772158 22.7170734,9.25925926 C23.5451228,8.59079693 24.0740741,7.56760212 24.0740741,6.42361111 C24.0740741,4.41363048 22.4383915,2.77777778 20.4282407,2.77777778 L17.5925926,2.77777778 L17.5925926,4.39814815 L20.4282407,4.39814815 C21.5455205,4.39814815 22.4537037,5.30633137 22.4537037,6.42361111 C22.4537037,7.54089085 21.5455205,8.44907407 20.4282407,8.44907407 L17.5925926,8.44907407 L17.5925926,10.0694444 L20.4282407,10.0694444 C21.5455205,10.0694444 22.4537037,10.9776277 22.4537037,12.0949074 C22.4537037,13.2121871 21.5455205,14.1203704 20.4282407,14.1203704 L17.5925926,14.1203704 L17.5925926,15.7407407 L20.4282407,15.7407407 C22.4383915,15.7404005 24.0740741,14.104888 24.0740741,12.0949074 Z" id="Path"></path>
                        <path d="M33.3333333,12.5002552 L33.3333333,6.01860359 C33.3333333,4.23128339 31.856795,2.77777778 30.0411523,2.77777778 L25.9259259,2.77777778 L25.9259259,15.7407407 L30.0411523,15.7407407 C31.856795,15.7409109 33.3333333,14.2875754 33.3333333,12.5002552 Z M27.5721893,4.39819068 L30.0413251,4.39819068 C30.94906,4.39819068 31.6874156,5.12485842 31.6874156,6.01860359 L31.6874156,12.5000851 C31.6874156,13.3936601 30.9492329,14.120498 30.0413251,14.120498 L27.5721893,14.120498 L27.5721893,4.39819068 Z" id="Shape"></path>
                        <circle id="Oval" cx="12.962963" cy="10.1851852" r="1"></circle>
                        <circle id="Oval" cx="36.1111111" cy="10.1851852" r="1"></circle>
                    </g>
                    <g id="Group-10" transform="translate(30.000000, 32.000000)">
                        <circle id="Oval" fill="#A8C30C" cx="14" cy="14" r="14"></circle>
                        <text id="3" font-family="Montserrat-SemiBold, Montserrat" font-size="18" font-weight="500" fill="#FFFFFF">
                            <tspan x="9" y="20">3</tspan>
                        </text>
                    </g>
                </g>
            </g>
        </g>
    </g>
</svg>