<?xml version="1.0" encoding="UTF-8"?>
<svg width="90px" height="90px" viewBox="0 0 90 90" version="1.1" xmlns="http://www.w3.org/2000/svg" xmlns:xlink="http://www.w3.org/1999/xlink">
    <!-- Generator: Sketch 53.2 (72643) - https://sketchapp.com -->
    <title>industrial-robot-svgrepo-com</title>
    <desc>Created with Sketch.</desc>
    <g id="Page-1" stroke="none" stroke-width="1" fill="none" fill-rule="evenodd">
        <g id="mebel-na-zakaz" transform="translate(-1470.000000, -3050.000000)">
            <g id="ПРЕИМУЩЕСТВА" transform="translate(0.000000, 2595.000000)">
                <g id="6-преимущество" transform="translate(1277.000000, 455.000000)">
                    <g id="industrial-robot-svgrepo-com" transform="translate(193.000000, 0.000000)">
                        <rect id="Rectangle" stroke="#676767" opacity="0.0109747024" x="0.5" y="0.5" width="89" height="89"></rect>
                        <path d="M76.3343125,44.892595 L76.3343125,26.1046448 L73.6667969,26.1046448 L73.6667969,17.6068742 C73.6667969,15.8791522 72.2705313,14.4737326 70.5542031,14.4737326 L58.1104375,14.4737326 C56.3929844,14.4737326 54.9960156,15.8792938 54.9960156,17.6068742 L54.9960156,26.1046448 L53.6658438,26.1046448 L39.6671875,26.1046448 C37.4831406,20.5947886 32.4131875,16.8225626 26.5577031,16.3210618 L26.5577031,12.6885426 L29.6667812,12.6885426 L29.6667812,10 L20.7792813,10 L20.7792813,12.6885426 L23.8866719,12.6885426 L23.8866719,16.3224772 C16.6489844,16.9478316 10.700125,22.6022073 9.78648438,29.9651961 C9.70632812,30.6086685 9.6656875,31.267428 9.6656875,31.9227903 C9.6656875,40.5567291 16.6442031,47.5811376 25.2220469,47.5811376 C31.5640937,47.5811376 37.3194531,43.641037 39.6676094,37.7390957 L52.3300469,37.7390957 L52.3300469,44.892595 L49.6643594,44.892595 L49.6643594,52.9440681 L7,52.9440681 L7,78 L18.5586719,78 L18.5586719,64.5803591 L67.4413281,64.5803591 L67.4413281,78 L79,78 L79,44.892595 L76.3343125,44.892595 L76.3343125,44.892595 Z M76.3289688,47.5812792 L76.3289688,52.9440681 L52.3355313,52.9440681 L52.3355313,47.5812792 L76.3289688,47.5812792 Z M67.4413281,38.6299921 L61.2230313,38.6299921 L61.2230313,35.950367 L67.4413281,35.950367 L67.4413281,38.6299921 L67.4413281,38.6299921 Z M61.2230313,41.3185347 L67.4413281,41.3185347 L67.4413281,44.892595 L61.2230313,44.892595 L61.2230313,41.3185347 Z M57.6669063,26.1046448 L57.6669063,23.4250197 L70.995625,23.4250197 L70.995625,26.1046448 L57.6669063,26.1046448 Z M58.1105781,17.1624168 L70.5543438,17.1624168 C70.7977656,17.1624168 70.9957656,17.3618564 70.9957656,17.6068742 L70.9957656,20.7363355 L57.6670468,20.7363355 L57.6670469,17.6068742 C57.6669063,17.3618564 57.8658906,17.1624168 58.1105781,17.1624168 Z M52.3303281,35.0505531 L47.0021875,35.0505531 L47.0021875,28.793329 L52.3303281,28.793329 L52.3303281,35.0505531 Z M32.1393906,28.793329 L44.3311563,28.793329 L44.3311563,35.0505531 L27.7874688,35.0505531 L32.1393906,28.793329 Z M23.8866719,19.0230513 L23.8866719,24.7639122 L26.5577031,24.7639122 L26.5577031,19.0227682 C30.9499844,19.4782663 34.7815937,22.156476 36.7430313,26.1046448 L30.7486094,26.1046448 L28.882375,28.7878086 L12.7189375,28.7878086 C14.0176094,23.5161759 18.4993281,19.5864082 23.8866719,19.0230513 Z M25.2221875,44.892595 C18.11725,44.892595 12.3368594,39.074308 12.3368594,31.9227903 C12.3368594,31.7740245 12.3399531,31.6252586 12.344875,31.4764928 L27.0124844,31.4764928 L22.6567656,37.7390957 L36.7417656,37.7390957 C34.5764219,42.0684504 30.1094688,44.892595 25.2221875,44.892595 Z M55.0012188,28.793329 L73.6632813,28.793329 L73.6632813,44.892595 L70.1125,44.892595 L70.1125,33.2616828 L58.5518594,33.2616828 L58.5518594,44.892595 L55.0012188,44.892595 L55.0012188,28.793329 L55.0012188,28.793329 Z M15.8876406,75.3114574 L9.67103125,75.3114574 L9.67103125,64.5803591 L15.8875,64.5803591 L15.8875,75.3114574 L15.8876406,75.3114574 Z M76.3289688,75.3114574 L70.1125,75.3114574 L70.1125,64.5803591 L76.3289688,64.5803591 L76.3289688,75.3114574 Z M76.3289688,61.891675 L9.67103125,61.891675 L9.67103125,55.6326108 L76.3289688,55.6326108 L76.3289688,61.891675 L76.3289688,61.891675 Z" id="Shape" fill="#A8C30C" fill-rule="nonzero"></path>
                    </g>
                </g>
            </g>
        </g>
    </g>
</svg>