<?xml version="1.0" encoding="UTF-8"?>
<svg width="90px" height="90px" viewBox="0 0 90 90" version="1.1" xmlns="http://www.w3.org/2000/svg" xmlns:xlink="http://www.w3.org/1999/xlink">
    <!-- Generator: Sketch 53.2 (72643) - https://sketchapp.com -->
    <title>ruka_svg</title>
    <desc>Created with Sketch.</desc>
    <g id="Page-1" stroke="none" stroke-width="1" fill="none" fill-rule="evenodd">
        <g id="mebel-na-zakaz" transform="translate(-915.000000, -3050.000000)">
            <g id="ПРЕИМУЩЕСТВА" transform="translate(0.000000, 2595.000000)">
                <g id="5-преимущество" transform="translate(717.000000, 455.000000)">
                    <g id="ruka_svg" transform="translate(198.000000, 0.000000)">
                        <rect id="Rectangle" stroke="#676767" opacity="0.00516183036" x="0.5" y="0.5" width="89" height="89"></rect>
                        <polygon id="Stroke-19" stroke="#A8C30C" stroke-width="3" points="5 72 17 72 17 42 5 42"></polygon>
                        <path d="M65.3877246,56.798082 L85.1477487,48.7862249 C85.1477487,48.7862249 89.4624667,51.5691369 84.9212086,55.4652136 L51.9078407,73 L17,64.8904969 L17,48.7862249 L34.0450279,45 L60.6169391,52.4601569 C60.6169391,52.4601569 65.3877246,53.4561465 65.3877246,56.798082 C65.3877246,56.798082 65.0444292,61.363034 60.6169391,60.2547515 L45.8552364,56.798082" id="Stroke-23" stroke="#A8C30C" stroke-width="3"></path>
                        <path d="M46.999389,35.1807698 C42.8949984,35.1807698 39.5668565,31.7418452 39.5668565,27.5025249 C39.5668565,23.2606797 42.8949984,19.8217552 46.999389,19.8217552 C51.1037795,19.8217552 54.4328991,23.2606797 54.4328991,27.5025249 C54.4328991,31.7418452 51.1037795,35.1807698 46.999389,35.1807698 Z M62.0499616,27.6969428 C62.0499616,27.224785 62.0250317,26.760202 61.985926,26.2981439 L65,25.4825986 L63.6481639,20.1499932 L60.5766533,20.9806879 C59.9274983,19.5844138 59.085503,18.3093353 58.0819523,17.1832264 L60.0563027,14.5396479 L55.8306844,11.1739457 L53.834337,13.8478231 C52.5406706,13.1635731 51.1411744,12.6712161 49.6678661,12.398526 L49.6678661,9 L44.3301786,9 L44.3301786,12.398526 C42.930438,12.6585915 41.5976659,13.1155998 40.3611916,13.7443019 L38.4002838,11.0401256 L34.1296939,14.34523 L36.0668939,17.0191074 C35.32804,17.824553 34.6739967,18.7057459 34.1145404,19.660161 L31.1175752,18.5214276 L29.2720292,23.6974887 L32.2144908,24.813498 C32.0436477,25.7502388 31.9500384,26.7122287 31.9500384,27.6969428 C31.9500384,28.0378054 31.9644586,28.376143 31.9845003,28.7119558 L29,29.5174014 L30.3518361,34.8550566 L33.2696123,34.0647605 C33.9043471,35.5165825 34.7465867,36.8547837 35.7594251,38.0313907 L33.9434528,40.4603521 L38.1693156,43.8285792 L39.957425,41.4349666 C41.3073058,42.1747646 42.7767036,42.7075201 44.3301786,42.9953596 L44.3301786,46 L49.6678661,46 L49.6678661,42.9953596 C51.1467958,42.7226696 52.5484918,42.2252627 53.846802,41.5435376 L55.5977609,43.9623993 L59.8703061,40.6572949 L58.0914843,38.2030845 C58.8447584,37.3547154 59.5063784,36.4154497 60.0658348,35.4105364 L62.8824248,36.4810973 L64.7250378,31.3075611 L61.8493004,30.2117511 C61.9810378,29.391156 62.0499616,28.5528866 62.0499616,27.6969428 Z" id="Stroke-25" stroke="#A8C30C" stroke-width="3"></path>
                    </g>
                </g>
            </g>
        </g>
    </g>
</svg>